<mxfile host="app.diagrams.net" modified="2024-07-14T14:46:18.725Z" agent="Mozilla/5.0 (Windows NT 10.0; Win64; x64) AppleWebKit/537.36 (KHTML, like Gecko) Chrome/126.0.0.0 Safari/537.36" etag="FJUkzS0j5OpOjyx47G5N" version="24.6.5" type="device">
  <diagram name="Page-1" id="e7e014a7-5840-1c2e-5031-d8a46d1fe8dd">
    <mxGraphModel dx="1596" dy="924" grid="1" gridSize="10" guides="1" tooltips="1" connect="1" arrows="1" fold="1" page="1" pageScale="1" pageWidth="1169" pageHeight="826" background="none" math="0" shadow="0">
      <root>
        <mxCell id="0" />
        <mxCell id="1" parent="0" />
        <mxCell id="2" value="User" style="swimlane;whiteSpace=wrap;startSize=23;" parent="1" vertex="1">
          <mxGeometry x="180" y="40" width="280" height="1230" as="geometry" />
        </mxCell>
        <mxCell id="5" value="" style="ellipse;shape=startState;fillColor=#000000;strokeColor=#FFFFFF;" parent="2" vertex="1">
          <mxGeometry x="100" y="40" width="30" height="30" as="geometry" />
        </mxCell>
        <mxCell id="6" value="" style="edgeStyle=elbowEdgeStyle;elbow=horizontal;verticalAlign=bottom;endArrow=open;endSize=8;strokeColor=#000000;endFill=1;rounded=0;entryX=0.446;entryY=-0.02;entryDx=0;entryDy=0;entryPerimeter=0;" parent="2" edge="1">
          <mxGeometry x="100" y="40" as="geometry">
            <mxPoint x="113.51999999999998" y="109" as="targetPoint" />
            <mxPoint x="115.5" y="62" as="sourcePoint" />
          </mxGeometry>
        </mxCell>
        <mxCell id="JO8irE-44FnXcwjwpFgs-42" value="Klik Menu" style="rounded=1;whiteSpace=wrap;html=1;" vertex="1" parent="2">
          <mxGeometry x="55.5" y="110" width="120" height="60" as="geometry" />
        </mxCell>
        <mxCell id="JO8irE-44FnXcwjwpFgs-43" value="" style="endArrow=classic;html=1;rounded=0;" edge="1" parent="2">
          <mxGeometry width="50" height="50" relative="1" as="geometry">
            <mxPoint x="175.5" y="142" as="sourcePoint" />
            <mxPoint x="365.5" y="142" as="targetPoint" />
          </mxGeometry>
        </mxCell>
        <mxCell id="JO8irE-44FnXcwjwpFgs-45" value="Memilih sub menu&lt;div&gt;dignosa&lt;/div&gt;" style="rounded=1;whiteSpace=wrap;html=1;" vertex="1" parent="2">
          <mxGeometry x="55.5" y="212" width="120" height="60" as="geometry" />
        </mxCell>
        <mxCell id="JO8irE-44FnXcwjwpFgs-95" value="Memilih Gejala&amp;nbsp;" style="rounded=1;whiteSpace=wrap;html=1;" vertex="1" parent="2">
          <mxGeometry x="55" y="342" width="120" height="60" as="geometry" />
        </mxCell>
        <mxCell id="JO8irE-44FnXcwjwpFgs-96" value="" style="endArrow=classic;html=1;rounded=0;" edge="1" parent="2">
          <mxGeometry width="50" height="50" relative="1" as="geometry">
            <mxPoint x="110" y="462" as="sourcePoint" />
            <mxPoint x="370" y="522" as="targetPoint" />
            <Array as="points">
              <mxPoint x="110" y="522" />
            </Array>
          </mxGeometry>
        </mxCell>
        <mxCell id="JO8irE-44FnXcwjwpFgs-99" value="klik button proses hasil diagnosa" style="rounded=1;whiteSpace=wrap;html=1;" vertex="1" parent="2">
          <mxGeometry x="55.5" y="442" width="120" height="60" as="geometry" />
        </mxCell>
        <mxCell id="JO8irE-44FnXcwjwpFgs-100" value="" style="endArrow=classic;html=1;rounded=0;entryX=0.454;entryY=0;entryDx=0;entryDy=0;entryPerimeter=0;" edge="1" parent="2" target="JO8irE-44FnXcwjwpFgs-99">
          <mxGeometry width="50" height="50" relative="1" as="geometry">
            <mxPoint x="110" y="402" as="sourcePoint" />
            <mxPoint x="160" y="352" as="targetPoint" />
          </mxGeometry>
        </mxCell>
        <mxCell id="JO8irE-44FnXcwjwpFgs-114" value="" style="rounded=0;whiteSpace=wrap;html=1;fillColor=#000000;" vertex="1" parent="2">
          <mxGeometry x="80" y="960" width="120" height="20" as="geometry" />
        </mxCell>
        <mxCell id="JO8irE-44FnXcwjwpFgs-115" value="" style="endArrow=classic;html=1;rounded=0;exitX=0.75;exitY=1;exitDx=0;exitDy=0;" edge="1" parent="2" source="JO8irE-44FnXcwjwpFgs-114">
          <mxGeometry width="50" height="50" relative="1" as="geometry">
            <mxPoint x="140" y="1040" as="sourcePoint" />
            <mxPoint x="170" y="1030" as="targetPoint" />
          </mxGeometry>
        </mxCell>
        <mxCell id="JO8irE-44FnXcwjwpFgs-116" value="klik button diagnosis" style="rounded=1;whiteSpace=wrap;html=1;" vertex="1" parent="2">
          <mxGeometry x="140" y="1030" width="110" height="32" as="geometry" />
        </mxCell>
        <mxCell id="JO8irE-44FnXcwjwpFgs-117" value="" style="endArrow=classic;html=1;rounded=0;exitX=0.75;exitY=1;exitDx=0;exitDy=0;" edge="1" parent="2">
          <mxGeometry width="50" height="50" relative="1" as="geometry">
            <mxPoint x="109.17000000000002" y="980" as="sourcePoint" />
            <mxPoint x="109.17000000000002" y="1030" as="targetPoint" />
          </mxGeometry>
        </mxCell>
        <mxCell id="JO8irE-44FnXcwjwpFgs-118" value="klik button&lt;div&gt;beranda&lt;/div&gt;" style="rounded=1;whiteSpace=wrap;html=1;" vertex="1" parent="2">
          <mxGeometry x="20" y="1030" width="110" height="32" as="geometry" />
        </mxCell>
        <mxCell id="JO8irE-44FnXcwjwpFgs-110" value="" style="endArrow=classic;html=1;rounded=0;exitX=0;exitY=0.5;exitDx=0;exitDy=0;" edge="1" parent="2" source="JO8irE-44FnXcwjwpFgs-108">
          <mxGeometry width="50" height="50" relative="1" as="geometry">
            <mxPoint x="370" y="970" as="sourcePoint" />
            <mxPoint x="200" y="970" as="targetPoint" />
          </mxGeometry>
        </mxCell>
        <mxCell id="3" value="Sistem" style="swimlane;whiteSpace=wrap" parent="1" vertex="1">
          <mxGeometry x="460" y="40" width="274.5" height="1230" as="geometry">
            <mxRectangle x="450" y="128" width="80" height="30" as="alternateBounds" />
          </mxGeometry>
        </mxCell>
        <mxCell id="17" value="" style="endArrow=open;strokeColor=#FF0000;endFill=1;rounded=0" parent="3" source="15" edge="1">
          <mxGeometry relative="1" as="geometry">
            <mxPoint x="75" y="220" as="targetPoint" />
          </mxGeometry>
        </mxCell>
        <mxCell id="19" value="" style="endArrow=open;strokeColor=#FF0000;endFill=1;rounded=0" parent="3" source="16" edge="1">
          <mxGeometry relative="1" as="geometry">
            <mxPoint x="75" y="325" as="targetPoint" />
          </mxGeometry>
        </mxCell>
        <mxCell id="JO8irE-44FnXcwjwpFgs-44" value="Menampilkan&amp;nbsp;&lt;div&gt;Sub Menu&lt;/div&gt;" style="rounded=1;whiteSpace=wrap;html=1;" vertex="1" parent="3">
          <mxGeometry x="85.5" y="112" width="120" height="60" as="geometry" />
        </mxCell>
        <mxCell id="JO8irE-44FnXcwjwpFgs-62" value="" style="ellipse;html=1;shape=endState;fillColor=#000000;strokeColor=#ff0000;" vertex="1" parent="3">
          <mxGeometry x="150" y="1184" width="30" height="30" as="geometry" />
        </mxCell>
        <mxCell id="JO8irE-44FnXcwjwpFgs-94" value="menampilkan gejala -gejala" style="rounded=1;whiteSpace=wrap;html=1;" vertex="1" parent="3">
          <mxGeometry x="100" y="272" width="120" height="60" as="geometry" />
        </mxCell>
        <mxCell id="JO8irE-44FnXcwjwpFgs-97" value="melakukan pencarian ke database rules dengan parameter gejala yang di input" style="rounded=1;whiteSpace=wrap;html=1;" vertex="1" parent="3">
          <mxGeometry x="92.5" y="498" width="130" height="60" as="geometry" />
        </mxCell>
        <mxCell id="JO8irE-44FnXcwjwpFgs-98" value="" style="endArrow=classic;html=1;rounded=0;entryX=1;entryY=0.5;entryDx=0;entryDy=0;exitX=0.5;exitY=1;exitDx=0;exitDy=0;" edge="1" parent="3" source="JO8irE-44FnXcwjwpFgs-94">
          <mxGeometry width="50" height="50" relative="1" as="geometry">
            <mxPoint x="130.5" y="312" as="sourcePoint" />
            <mxPoint x="-103.5" y="382" as="targetPoint" />
            <Array as="points">
              <mxPoint x="160" y="382" />
            </Array>
          </mxGeometry>
        </mxCell>
        <mxCell id="JO8irE-44FnXcwjwpFgs-102" value="melakukan proses metode forward chaining" style="rounded=1;whiteSpace=wrap;html=1;" vertex="1" parent="3">
          <mxGeometry x="97.5" y="616" width="130" height="60" as="geometry" />
        </mxCell>
        <mxCell id="JO8irE-44FnXcwjwpFgs-103" value="" style="endArrow=classic;html=1;rounded=0;exitX=0.5;exitY=1;exitDx=0;exitDy=0;" edge="1" parent="3" source="JO8irE-44FnXcwjwpFgs-97">
          <mxGeometry width="50" height="50" relative="1" as="geometry">
            <mxPoint x="157.08000000000004" y="558" as="sourcePoint" />
            <mxPoint x="157.5" y="616" as="targetPoint" />
          </mxGeometry>
        </mxCell>
        <mxCell id="JO8irE-44FnXcwjwpFgs-104" value="menampilkan penyakit&amp;nbsp;&lt;div&gt;bedasarkan hasil nilai probabilitas tertinggi&lt;/div&gt;" style="rounded=1;whiteSpace=wrap;html=1;" vertex="1" parent="3">
          <mxGeometry x="97.5" y="726" width="130" height="60" as="geometry" />
        </mxCell>
        <mxCell id="JO8irE-44FnXcwjwpFgs-106" value="" style="endArrow=classic;html=1;rounded=0;entryX=0.5;entryY=0;entryDx=0;entryDy=0;exitX=0.5;exitY=1;exitDx=0;exitDy=0;" edge="1" parent="3" source="JO8irE-44FnXcwjwpFgs-102" target="JO8irE-44FnXcwjwpFgs-104">
          <mxGeometry width="50" height="50" relative="1" as="geometry">
            <mxPoint x="157.08000000000004" y="676" as="sourcePoint" />
            <mxPoint x="157.5" y="734" as="targetPoint" />
          </mxGeometry>
        </mxCell>
        <mxCell id="JO8irE-44FnXcwjwpFgs-108" value="menampilkan halaman&lt;div&gt;hasil dianosa&lt;/div&gt;" style="rounded=1;whiteSpace=wrap;html=1;" vertex="1" parent="3">
          <mxGeometry x="100" y="940" width="130" height="60" as="geometry" />
        </mxCell>
        <mxCell id="JO8irE-44FnXcwjwpFgs-109" value="" style="endArrow=classic;html=1;rounded=0;exitX=0.5;exitY=1;exitDx=0;exitDy=0;entryX=0.5;entryY=0;entryDx=0;entryDy=0;" edge="1" parent="3">
          <mxGeometry width="50" height="50" relative="1" as="geometry">
            <mxPoint x="162.16000000000008" y="786" as="sourcePoint" />
            <mxPoint x="162.08000000000004" y="836" as="targetPoint" />
          </mxGeometry>
        </mxCell>
        <mxCell id="JO8irE-44FnXcwjwpFgs-126" value="meyimpan hasil ke database Riwayat" style="rounded=1;whiteSpace=wrap;html=1;" vertex="1" parent="3">
          <mxGeometry x="100" y="840" width="130" height="60" as="geometry" />
        </mxCell>
        <mxCell id="JO8irE-44FnXcwjwpFgs-127" value="" style="endArrow=classic;html=1;rounded=0;entryX=0.5;entryY=0;entryDx=0;entryDy=0;exitX=0.478;exitY=1;exitDx=0;exitDy=0;exitPerimeter=0;" edge="1" parent="3" source="JO8irE-44FnXcwjwpFgs-126">
          <mxGeometry width="50" height="50" relative="1" as="geometry">
            <mxPoint x="162" y="910" as="sourcePoint" />
            <mxPoint x="162.08000000000004" y="940" as="targetPoint" />
          </mxGeometry>
        </mxCell>
        <mxCell id="JO8irE-44FnXcwjwpFgs-130" style="edgeStyle=orthogonalEdgeStyle;rounded=0;orthogonalLoop=1;jettySize=auto;html=1;entryX=0.5;entryY=0;entryDx=0;entryDy=0;" edge="1" parent="3" source="JO8irE-44FnXcwjwpFgs-128" target="JO8irE-44FnXcwjwpFgs-62">
          <mxGeometry relative="1" as="geometry" />
        </mxCell>
        <mxCell id="JO8irE-44FnXcwjwpFgs-128" value="menampilkan halaman&lt;div&gt;heranda&lt;/div&gt;" style="rounded=1;whiteSpace=wrap;html=1;" vertex="1" parent="3">
          <mxGeometry x="100" y="1090" width="130" height="60" as="geometry" />
        </mxCell>
        <mxCell id="JO8irE-44FnXcwjwpFgs-46" value="" style="endArrow=classic;html=1;rounded=0;entryX=1;entryY=0.5;entryDx=0;entryDy=0;exitX=0.5;exitY=1;exitDx=0;exitDy=0;" edge="1" parent="1" source="JO8irE-44FnXcwjwpFgs-44" target="JO8irE-44FnXcwjwpFgs-45">
          <mxGeometry width="50" height="50" relative="1" as="geometry">
            <mxPoint x="590" y="212" as="sourcePoint" />
            <mxPoint x="590" y="282" as="targetPoint" />
            <Array as="points">
              <mxPoint x="606" y="282" />
            </Array>
          </mxGeometry>
        </mxCell>
        <mxCell id="JO8irE-44FnXcwjwpFgs-93" value="" style="endArrow=classic;html=1;rounded=0;entryX=-0.031;entryY=0.617;entryDx=0;entryDy=0;entryPerimeter=0;" edge="1" parent="1" target="JO8irE-44FnXcwjwpFgs-94">
          <mxGeometry width="50" height="50" relative="1" as="geometry">
            <mxPoint x="290" y="312" as="sourcePoint" />
            <mxPoint x="530" y="372" as="targetPoint" />
            <Array as="points">
              <mxPoint x="290" y="352" />
            </Array>
          </mxGeometry>
        </mxCell>
        <mxCell id="JO8irE-44FnXcwjwpFgs-122" value="" style="endArrow=classic;html=1;rounded=0;entryX=1;entryY=0.5;entryDx=0;entryDy=0;exitX=1;exitY=0.75;exitDx=0;exitDy=0;" edge="1" parent="1" source="JO8irE-44FnXcwjwpFgs-116" target="JO8irE-44FnXcwjwpFgs-94">
          <mxGeometry width="50" height="50" relative="1" as="geometry">
            <mxPoint x="440" y="990" as="sourcePoint" />
            <mxPoint x="720" y="310" as="targetPoint" />
            <Array as="points">
              <mxPoint x="720" y="1094" />
              <mxPoint x="710" y="340" />
            </Array>
          </mxGeometry>
        </mxCell>
        <mxCell id="JO8irE-44FnXcwjwpFgs-120" value="" style="endArrow=classic;html=1;rounded=0;exitX=0.5;exitY=1;exitDx=0;exitDy=0;entryX=0;entryY=0.5;entryDx=0;entryDy=0;" edge="1" parent="1" source="JO8irE-44FnXcwjwpFgs-118" target="JO8irE-44FnXcwjwpFgs-128">
          <mxGeometry width="50" height="50" relative="1" as="geometry">
            <mxPoint x="250" y="1100" as="sourcePoint" />
            <mxPoint x="590" y="1160" as="targetPoint" />
            <Array as="points">
              <mxPoint x="255" y="1160" />
            </Array>
          </mxGeometry>
        </mxCell>
      </root>
    </mxGraphModel>
  </diagram>
</mxfile>
